<svg id="Layer_1" data-name="Layer 1" xmlns="http://www.w3.org/2000/svg" xmlns:xlink="http://www.w3.org/1999/xlink" viewBox="0 0 241.61189 70.56063"><defs><style>.cls-1{fill:url(#linear-gradient);}.cls-2{fill:url(#linear-gradient-2);}.cls-3{fill:url(#linear-gradient-3);}.cls-4{fill:url(#linear-gradient-4);}.cls-5{fill:#231f20;}.cls-6{fill:#211e1f;}</style><linearGradient id="linear-gradient" x1="59.99028" y1="0.85251" x2="-4.80095" y2="28.97467" gradientUnits="userSpaceOnUse"><stop offset="0" stop-color="#4fc8ec"/><stop offset="1" stop-color="#3953a4"/></linearGradient><linearGradient id="linear-gradient-2" x1="0" y1="38.46118" x2="39.92659" y2="38.46118" xlink:href="#linear-gradient"/><linearGradient id="linear-gradient-3" x1="21.59724" y1="30.99749" x2="61.26672" y2="30.99749" xlink:href="#linear-gradient"/><linearGradient id="linear-gradient-4" x1="69.39625" y1="69.80846" x2="-0.21994" y2="126.26883" xlink:href="#linear-gradient"/></defs><polygon class="cls-1" points="0 22.746 40.115 0 52.66 7.168 13.419 30.545 0 22.746"/><polygon class="cls-2" points="0 22.746 0 38.185 26.881 54.177 39.927 45.952 0 22.746"/><polygon class="cls-3" points="21.597 24.238 34.629 16.446 61.267 30.767 61.113 45.549 48.935 38.981 21.597 24.238"/><path class="cls-4" d="M14.11791,102.7224,52.77079,78.34082l12.4953,6.73849-37.23068,25.012S14.64454,102.014,14.11791,102.7224Z" transform="translate(-4.15282 -39.53068)"/><path class="cls-5" d="M89.03278,68.54032H80.62037V65.95957a5.06412,5.06412,0,0,0-.32327-2.30288,1.18529,1.18529,0,0,0-1.07607-.494,1.36835,1.36835,0,0,0-1.2368.66653,3.87312,3.87312,0,0,0-.41953,2.02319,5.73033,5.73033,0,0,0,.4722,2.628,6.8254,6.8254,0,0,0,2.55895,2.12852Q86.645,74.19945,88.2146,76.5005q1.57052,2.3047,1.571,7.42261a13.01055,13.01055,0,0,1-.87175,5.48659,6.81831,6.81831,0,0,1-3.36714,2.95851,13.30082,13.30082,0,0,1-5.809,1.195A12.99568,12.99568,0,0,1,73.531,92.18659a6.75953,6.75953,0,0,1-3.36714-3.507,17.96908,17.96908,0,0,1-.79638-6.046V80.35256h8.4124v4.23889a5.571,5.571,0,0,0,.35506,2.51719,1.375,1.375,0,0,0,1.25859.55937,1.478,1.478,0,0,0,1.34486-.71011,4.06173,4.06173,0,0,0,.44133-2.10855q0-3.07566-.83906-4.02278a26.74829,26.74829,0,0,0-4.2389-3.16373,41.31,41.31,0,0,1-4.475-3.24909,7.58357,7.58357,0,0,1-1.818-2.79687,12.2826,12.2826,0,0,1-.721-4.56036,12.669,12.669,0,0,1,1.02158-5.85345A6.87819,6.87819,0,0,1,73.41207,58.31a13.17428,13.17428,0,0,1,5.50839-1.04247,14.36646,14.36646,0,0,1,6.01327,1.13872,6.29837,6.29837,0,0,1,3.29177,2.87315,15.21318,15.21318,0,0,1,.80728,5.88433Z" transform="translate(-4.15282 -39.53068)"/><path class="cls-5" d="M113.32288,78.39475q0,5.24958-.247,7.4335a8.32959,8.32959,0,0,1-5.06706,6.767,12.81932,12.81932,0,0,1-5.16331.968,13.11054,13.11054,0,0,1-5.02438-.91534,8.37086,8.37086,0,0,1-5.196-6.72338,73.70308,73.70308,0,0,1-.25789-7.52976V72.43414q0-5.24958.247-7.4335a8.32363,8.32363,0,0,1,5.06706-6.76516,12.787,12.787,0,0,1,5.16422-.968,13.10918,13.10918,0,0,1,5.02347.91352,8.37091,8.37091,0,0,1,5.196,6.72339,73.72339,73.72339,0,0,1,.2579,7.52975Zm-9.058-11.44538a10.80161,10.80161,0,0,0-.26879-3.10925,1.07025,1.07025,0,0,0-1.10785-.67742,1.236,1.236,0,0,0-1.087.54848,7.77938,7.77938,0,0,0-.37594,3.23819V83.21481a15.99038,15.99038,0,0,0,.247,3.74309,1.08058,1.08058,0,0,0,1.15144.71011,1.11454,1.11454,0,0,0,1.18323-.81727,17.22094,17.22094,0,0,0,.25789-3.89564Z" transform="translate(-4.15282 -39.53068)"/><path class="cls-5" d="M116.70092,57.99757h15.341v6.9722h-6.283v6.60534h5.59375v6.62531H125.759v14.6309h-9.058Z" transform="translate(-4.15282 -39.53068)"/><path class="cls-5" d="M152.48179,57.99757v6.9722h-5.37943V92.83132h-9.05805V64.96977h-5.35764v-6.9722Z" transform="translate(-4.15282 -39.53068)"/><path class="cls-5" d="M168.43758,57.99757l5.18148,34.83375h-9.25692l-.48673-6.26026h-3.24l-.54485,6.26026h-9.36316l4.61938-34.83375ZM163.6375,80.39615q-.6865-5.91975-1.37846-14.63091-1.38663,10.00608-1.73987,14.63091Z" transform="translate(-4.15282 -39.53068)"/><path class="cls-5" d="M207.23145,57.99848h15.10311v6.9722h-6.04415V71.576h5.65731v6.62532h-5.65731v7.66052h6.64711v6.97038H207.23145Z" transform="translate(-4.15282 -39.53068)"/><path class="cls-5" d="M245.76471,57.99848V92.83223h-7.9384l-4.7129-15.835v15.835h-7.57335V57.99848h7.57335l5.078,15.68608V57.99848Z" transform="translate(-4.15282 -39.53068)"/><path class="cls-6" d="M193.27484,82.94138h-6.80755l.06493,9.76419h-11.5166V77.93668c6.80754-8.07675,13.99731-1.26921,13.99731-1.26921,3.56242-3.69222,12.53338-6.05036,12.53338-6.05036h-8.96374a1.67717,1.67717,0,1,1-.01443-.50476h8.97817c-6.29556-1.14663-12.85068-5.72583-12.85068-5.72583-7.63687,6.42532-13.68-1.21155-13.68-1.21155V58.127h16.41311s12.5983-.50476,14.192,10.31231C205.62071,68.43931,208.48365,81.41979,193.27484,82.94138Z" transform="translate(-4.15282 -39.53068)"/></svg>